<svg id="Layer_1" data-name="Layer 1" xmlns="http://www.w3.org/2000/svg" viewBox="0 0 841.89 595.28"><defs><style>.cls-1{fill:#493762;}</style></defs><title>Beeline_Logo</title><path class="cls-1" d="M345.7,273.75a2.62,2.62,0,0,0-1.92-.81h-0.9L342.73,266q-0.3-8.75-9.2-8.75H281.21q-8.9,0-9,8.75L272,272.95h-1.11a2.76,2.76,0,0,0-2.72,2.72v4.39a2.76,2.76,0,0,0,2.72,2.72h0.9L271,321.67q-0.27,8.48,7.4,9.26v4.74q0,2.11,2.71,2.11H288q2.71,0,2.71-2.11V331H323.6v4.8q0,2.11,2.71,2.11h6.94q2.71,0,2.71-2.11V331q8.12-.59,8-9.3l-0.84-38.89h0.69a2.76,2.76,0,0,0,2.72-2.72v-4.39A2.62,2.62,0,0,0,345.7,273.75Zm-57.24,50.75a4.94,4.94,0,0,1-3.62,1.51,5.11,5.11,0,0,1-3.77-1.51,4.88,4.88,0,0,1-1.66-3.77,4.72,4.72,0,0,1,1.66-3.62,4.88,4.88,0,0,1,3.77-1.66,5.72,5.72,0,0,1,5.28,5.28A4.88,4.88,0,0,1,288.46,324.51Zm44.94,0a5.11,5.11,0,0,1-3.77,1.51,4.94,4.94,0,0,1-3.62-1.51,4.88,4.88,0,0,1-1.66-3.77,5.72,5.72,0,0,1,5.28-5.28,4.88,4.88,0,0,1,3.77,1.66,4.72,4.72,0,0,1,1.66,3.62A4.88,4.88,0,0,1,333.4,324.51Zm4.37-25q0,9-9,10.1a145.7,145.7,0,0,1-21.56,2,145.7,145.7,0,0,1-21.56-2q-9-1.06-9-10.1v-27.9q0-9,9.5-9.8,10.71-.75,21.11-0.6,10.41-.15,21.11.6,9.5,0.75,9.5,9.8v27.9Z"/><path class="cls-1" d="M310.53,288.47l-2.77,3.3a60,60,0,0,0,11.35,9.46l2.77-3.3A56.37,56.37,0,0,1,310.53,288.47Z"/><path class="cls-1" d="M304.85,298.52a7.49,7.49,0,0,0,2.68,5,7,7,0,0,0,5.28,1.68,7.31,7.31,0,0,0,4.42-1.86A78.42,78.42,0,0,1,306,294,7.51,7.51,0,0,0,304.85,298.52Z"/><path class="cls-1" d="M322.19,286.09a7.23,7.23,0,0,0-5.5-1.66,6.92,6.92,0,0,0-4.26,1.88,64.65,64.65,0,0,0,11.25,9.38A7.84,7.84,0,0,0,322.19,286.09Z"/><path class="cls-1" d="M298.14,287.2q-6.08-1-9.08,1.43a4.78,4.78,0,0,0-2.22,4q-0.31,3.88,3.79,4.17,2.61,0.42,8.16-2.21a48.76,48.76,0,0,0,8.46-4.91Q301.31,287.89,298.14,287.2Z"/><path class="cls-1" d="M301.55,285.73q5.72,3,6.23,2.67,0.38-4.21-1.67-10.67-2.5-7.81-5.85-9.45-2.14-1.21-4.62,1a8.43,8.43,0,0,0-2.47,4.82,9.73,9.73,0,0,0,2.5,6.63A16.57,16.57,0,0,0,301.55,285.73Z"/><path class="cls-1" d="M372.49,283.56a36.31,36.31,0,0,1-3.94,6q-1.73,2-2.82,2-1.49,0-1.49-3.43a17.63,17.63,0,0,1,1-6,15.4,15.4,0,0,1,2.67-4.71,16.44,16.44,0,0,1,4.08-3.5,25.06,25.06,0,0,1,5.16-2.38A33.59,33.59,0,0,1,383,270.2a45.89,45.89,0,0,1,6.42-.44,53.78,53.78,0,0,1,7.71.56,56.54,56.54,0,0,1,7.44,1.58,44.82,44.82,0,0,1,6.66,2.46,29.32,29.32,0,0,1,5.39,3.19,15.05,15.05,0,0,1,3.6,3.79,7.76,7.76,0,0,1,1.31,4.25,12.55,12.55,0,0,1-1.14,5.16,13,13,0,0,1-3.57,4.6,19.49,19.49,0,0,1-6.22,3.38,29.37,29.37,0,0,1-9.09,1.43,14.92,14.92,0,0,1,5.88,1.07,12.24,12.24,0,0,1,4.21,2.89,12,12,0,0,1,2.55,4.2,14.75,14.75,0,0,1,.85,5,17.14,17.14,0,0,1-.58,4.35,17.67,17.67,0,0,1-1.73,4.25,18.75,18.75,0,0,1-2.89,3.82,18.11,18.11,0,0,1-4.06,3.11,21.62,21.62,0,0,1-5.25,2.09,25.35,25.35,0,0,1-6.42.76,39.82,39.82,0,0,1-4.65-.29q-2.45-.29-4.94-0.78t-4.91-1.17q-2.41-.68-4.55-1.46a5.48,5.48,0,0,1-1.68-.71,1.87,1.87,0,0,1-.73-1.7q0-5.64.29-11.55a108.75,108.75,0,0,1,1.17-11.55,69.34,69.34,0,0,1,2.55-10.75,35.93,35.93,0,0,1,4.42-9.16,7.94,7.94,0,0,1,4.38-1.66q2.48,0,4.15,2.79a23,23,0,0,0-2.67,4.69,39,39,0,0,0-1.85,5.42,57.05,57.05,0,0,0-1.21,5.79q-0.46,3-.73,5.78-0.17,1.6-.29,3.4t-0.22,3.67q-0.1,1.87-.15,3.72t-0.05,3.55c0,0.18,0,.43,0,0.75s0,0.65.08,1a5.39,5.39,0,0,0,.2.93,1.21,1.21,0,0,0,.41.63,38.44,38.44,0,0,0,4.45,1.16,24.17,24.17,0,0,0,4.76.48,22.49,22.49,0,0,0,5.61-.7,14.25,14.25,0,0,0,4.82-2.21,11.29,11.29,0,0,0,3.38-3.87,11.91,11.91,0,0,0,1.27-5.72,6.54,6.54,0,0,0-.75-3.28,7,7,0,0,0-2-2.19,10.19,10.19,0,0,0-2.75-1.41q-1.55-.53-3.16-1l-3.16-.83a13.23,13.23,0,0,1-2.75-1,6,6,0,0,1-2-1.56,3.77,3.77,0,0,1-.75-2.43,7.89,7.89,0,0,1,.08-1.24,1.59,1.59,0,0,1,.41-0.87,2,2,0,0,1,1-.51,6.86,6.86,0,0,1,1.72-.17q1.46,0,2.67.12t2.6,0.12a20.27,20.27,0,0,0,5.89-.8,14.75,14.75,0,0,0,4.48-2.16,9.82,9.82,0,0,0,2.85-3.18,7.94,7.94,0,0,0,1-3.89,4.32,4.32,0,0,0-.78-2.5,7.51,7.51,0,0,0-2.19-2,16.42,16.42,0,0,0-3.31-1.58,30.55,30.55,0,0,0-4.15-1.14,42.37,42.37,0,0,0-4.72-.68q-2.48-.22-5-0.22a56.43,56.43,0,0,0-6.37.36,39.46,39.46,0,0,0-5.84,1.09,23.24,23.24,0,0,0-4.79,1.83A9.27,9.27,0,0,0,372.49,283.56Z"/><path class="cls-1" d="M430.18,328.74a12.73,12.73,0,0,1-5.59-1.16,11.55,11.55,0,0,1-4-3.11,13.29,13.29,0,0,1-2.4-4.52,18,18,0,0,1-.8-5.39,24,24,0,0,1,1.51-8.19,21.79,21.79,0,0,1,1.92-3.89,15.45,15.45,0,0,1,2.7-3.26A12.48,12.48,0,0,1,427,297a10.61,10.61,0,0,1,4.26-.83,10,10,0,0,1,3.53.61,8.65,8.65,0,0,1,2.84,1.72,7.78,7.78,0,0,1,1.89,2.67,8.69,8.69,0,0,1,.68,3.5,9.47,9.47,0,0,1-1,4.21,15.37,15.37,0,0,1-2.87,4,20.26,20.26,0,0,1-4.37,3.33,23.33,23.33,0,0,1-5.49,2.28,10.85,10.85,0,0,0,1,1.53,4.56,4.56,0,0,0,1,1,3.33,3.33,0,0,0,1.07.48,5.1,5.1,0,0,0,1.21.14,12.67,12.67,0,0,0,4.3-.82,28.05,28.05,0,0,0,4.4-2,37.24,37.24,0,0,0,4-2.67,34.68,34.68,0,0,0,3.23-2.74l4.38,4.55a44.86,44.86,0,0,1-6.35,5.47q-1.46,1-3.14,2a28.44,28.44,0,0,1-3.53,1.75,24.46,24.46,0,0,1-3.84,1.22A17.85,17.85,0,0,1,430.18,328.74Zm-4.52-16a6.73,6.73,0,0,0,2.67-.63,12,12,0,0,0,2.68-1.61,11.27,11.27,0,0,0,2.09-2.14,3.81,3.81,0,0,0,.85-2.24,5,5,0,0,0-.56-2.51,1.61,1.61,0,0,0-1.38-1,5.32,5.32,0,0,0-2.5.54,5.42,5.42,0,0,0-1.73,1.41,7.31,7.31,0,0,0-1.12,2,13.37,13.37,0,0,0-.65,2.23,16.8,16.8,0,0,0-.29,2.17Q425.66,312,425.66,312.77Z"/><path class="cls-1" d="M456.92,328.74a12.73,12.73,0,0,1-5.59-1.16,11.55,11.55,0,0,1-4-3.11,13.29,13.29,0,0,1-2.4-4.52,18,18,0,0,1-.8-5.39,24,24,0,0,1,1.51-8.19,21.79,21.79,0,0,1,1.92-3.89,15.45,15.45,0,0,1,2.7-3.26,12.48,12.48,0,0,1,3.47-2.24,10.61,10.61,0,0,1,4.26-.83,10,10,0,0,1,3.53.61,8.65,8.65,0,0,1,2.84,1.72,7.78,7.78,0,0,1,1.89,2.67,8.69,8.69,0,0,1,.68,3.5,9.47,9.47,0,0,1-1,4.21,15.37,15.37,0,0,1-2.87,4,20.26,20.26,0,0,1-4.37,3.33,23.33,23.33,0,0,1-5.49,2.28,10.85,10.85,0,0,0,1,1.53,4.56,4.56,0,0,0,1,1,3.33,3.33,0,0,0,1.07.48,5.1,5.1,0,0,0,1.21.14,12.67,12.67,0,0,0,4.3-.82,28.05,28.05,0,0,0,4.4-2,37.24,37.24,0,0,0,4-2.67,34.68,34.68,0,0,0,3.23-2.74l4.38,4.55a44.86,44.86,0,0,1-6.35,5.47q-1.46,1-3.14,2a28.44,28.44,0,0,1-3.53,1.75,24.46,24.46,0,0,1-3.84,1.22A17.85,17.85,0,0,1,456.92,328.74Zm-4.52-16a6.73,6.73,0,0,0,2.67-.63,12,12,0,0,0,2.68-1.61,11.27,11.27,0,0,0,2.09-2.14,3.81,3.81,0,0,0,.85-2.24,5,5,0,0,0-.56-2.51,1.61,1.61,0,0,0-1.38-1,5.32,5.32,0,0,0-2.5.54,5.42,5.42,0,0,0-1.73,1.41,7.31,7.31,0,0,0-1.12,2,13.37,13.37,0,0,0-.65,2.23,16.8,16.8,0,0,0-.29,2.17Q452.4,312,452.4,312.77Z"/><path class="cls-1" d="M479.75,328.74a4.73,4.73,0,0,1-3.41-1.61,14.11,14.11,0,0,1-2.75-4.33,29.45,29.45,0,0,1-1.83-6.3,41.35,41.35,0,0,1-.66-7.53,53.49,53.49,0,0,1,.44-6.57q0.44-3.55,1.29-7.32t2-7.58a77.16,77.16,0,0,1,2.65-7.3,61.68,61.68,0,0,1,3.21-6.54,35.49,35.49,0,0,1,3.64-5.3,17.08,17.08,0,0,1,4-3.55,7.89,7.89,0,0,1,4.21-1.29,4.13,4.13,0,0,1,2.41.66,4.6,4.6,0,0,1,1.49,1.75,8.51,8.51,0,0,1,.76,2.46,17.67,17.67,0,0,1,.22,2.8,30.16,30.16,0,0,1-.73,6.51,50.46,50.46,0,0,1-2,6.66q-1.24,3.35-2.87,6.71t-3.4,6.68q-1.77,3.31-3.55,6.52t-3.35,6.27a7.31,7.31,0,0,0-.36.88q-0.19.54-.36,1.17t-0.34,1.34q-0.17.71-.27,1.39v0.48a7.8,7.8,0,0,0,.19,1.72,9.23,9.23,0,0,0,.46,1.49,4.47,4.47,0,0,0,.58,1.05,0.81,0.81,0,0,0,.58.39,4.83,4.83,0,0,0,1.48-.27,13.65,13.65,0,0,0,1.77-.73q0.93-.46,1.92-1.05t1.9-1.21q2.14-1.43,4.48-3.3l2.79,7.13a70,70,0,0,1-6,3.87q-1.29.71-2.67,1.41T485,327.55a21.41,21.41,0,0,1-2.72.87A10.5,10.5,0,0,1,479.75,328.74Zm0-27.18q1.53-2.72,3.24-6.12t3.24-7q1.53-3.6,2.65-7.19a33.56,33.56,0,0,0,1.43-6.68q0-1-.05-1.68t-0.32-.7a3.08,3.08,0,0,0-2.12,1.27,17.12,17.12,0,0,0-2.28,3.45A40.33,40.33,0,0,0,483.4,282q-1,2.89-1.85,6.15a63.31,63.31,0,0,0-1.29,6.71A49,49,0,0,0,479.79,301.56Z"/><path class="cls-1" d="M512.37,321.51a30.15,30.15,0,0,1-3,2.4,32.38,32.38,0,0,1-3.92,2.34,30,30,0,0,1-4.3,1.78,13.45,13.45,0,0,1-4.16.71,7.88,7.88,0,0,1-3-.49,5,5,0,0,1-2-1.38,5.29,5.29,0,0,1-1.07-2.16,11.39,11.39,0,0,1-.32-2.8,29.55,29.55,0,0,1,.49-5q0.49-2.84,1.21-5.88t1.51-6.06q0.8-3,1.41-5.57a3,3,0,0,1,1-1.51,6.1,6.1,0,0,1,1.61-1,9,9,0,0,1,1.87-.58,9.34,9.34,0,0,1,1.75-.19,2.7,2.7,0,0,1,1.94.53,1.94,1.94,0,0,1,.51,1.41,10,10,0,0,1-.34,2.16q-0.34,1.41-.85,3.19t-1.09,3.84q-0.58,2.06-1.09,4.11t-0.85,4a20.72,20.72,0,0,0-.34,3.52,7.06,7.06,0,0,0,.34,2.43,1.34,1.34,0,0,0,1.39.9,5.6,5.6,0,0,0,2.72-.85,24.19,24.19,0,0,0,3-2.06q1.53-1.21,3-2.5t2.58-2.21v6.9Zm-15.19-34.93a5.72,5.72,0,0,1,1.44-3.62,6.13,6.13,0,0,1,2-1.46,7.51,7.51,0,0,1,3.18-.59,9,9,0,0,1,2.24.27,5.46,5.46,0,0,1,1.83.83,4,4,0,0,1,1.24,1.48,4.81,4.81,0,0,1,.46,2.17,6.85,6.85,0,0,1-.37,2.24,5.22,5.22,0,0,1-1.19,1.94,6.11,6.11,0,0,1-2.06,1.38,7.58,7.58,0,0,1-3,.53,6.07,6.07,0,0,1-4.42-1.41A5,5,0,0,1,497.18,286.58Z"/><path class="cls-1" d="M510,321.64q0-2.24.27-5.18t0.68-6q0.41-3,.92-5.86t1-4.82a5.32,5.32,0,0,1,1.44-2.62,4,4,0,0,1,2.9-1.05,2.78,2.78,0,0,1,2.55,1.12,5.51,5.51,0,0,1,.71,3,12.43,12.43,0,0,1-.1,1.38q-0.1.87-.25,1.9t-0.32,2.14q-0.17,1.1-.32,2t-0.25,1.63a8.05,8.05,0,0,0-.1.93h0.68l0.65-1.21,1-1.92q0.58-1.09,1.24-2.29t1.24-2.31q0.58-1.1,1.05-2l0.71-1.26a6.15,6.15,0,0,1,2.48-2.51,7,7,0,0,1,3.09-.68,3.14,3.14,0,0,1,2.7,1.43,6.77,6.77,0,0,1,1,3.94,8.51,8.51,0,0,1-.15,1.26q-0.15.88-.39,2.11l-0.53,2.68q-0.29,1.46-.53,3t-0.39,3a27.21,27.21,0,0,0-.15,2.75,9.69,9.69,0,0,0,.53,3.47,1.77,1.77,0,0,0,1.65,1.36,2.86,2.86,0,0,0,1.17-.31,11.75,11.75,0,0,0,1.43-.8,17.94,17.94,0,0,0,1.56-1.14q0.8-.65,1.58-1.33,1.8-1.6,3.77-3.6l0.58,7.61-1.7,1.29q-1.39,1.05-2.84,2.11a25.21,25.21,0,0,1-3,1.89,18.67,18.67,0,0,1-3.26,1.36,12,12,0,0,1-3.57.53q-1.87,0-3.14-2.7a19.17,19.17,0,0,1-1.27-7.9,38.53,38.53,0,0,1,.27-4.4q0.27-2.36.68-5.08h-0.54l-8.9,17.67a4.37,4.37,0,0,1-1.53,1.9,3.76,3.76,0,0,1-2,.51,3.56,3.56,0,0,1-3.55-2.19,7.63,7.63,0,0,1-.61-2.28A22.09,22.09,0,0,1,510,321.64Z"/><path class="cls-1" d="M552.94,328.74a12.73,12.73,0,0,1-5.59-1.16,11.55,11.55,0,0,1-4-3.11A13.29,13.29,0,0,1,541,320a18,18,0,0,1-.8-5.39,24,24,0,0,1,1.51-8.19,21.79,21.79,0,0,1,1.92-3.89,15.45,15.45,0,0,1,2.7-3.26,12.48,12.48,0,0,1,3.47-2.24,10.61,10.61,0,0,1,4.26-.83,10,10,0,0,1,3.53.61,8.65,8.65,0,0,1,2.84,1.72,7.78,7.78,0,0,1,1.89,2.67,8.69,8.69,0,0,1,.68,3.5,9.47,9.47,0,0,1-1,4.21,15.37,15.37,0,0,1-2.87,4,20.26,20.26,0,0,1-4.37,3.33,23.33,23.33,0,0,1-5.49,2.28,10.85,10.85,0,0,0,1,1.53,4.56,4.56,0,0,0,1,1,3.33,3.33,0,0,0,1.07.48,5.1,5.1,0,0,0,1.21.14,12.67,12.67,0,0,0,4.3-.82,28.05,28.05,0,0,0,4.4-2,37.24,37.24,0,0,0,4-2.67,34.68,34.68,0,0,0,3.23-2.74l4.38,4.55a44.86,44.86,0,0,1-6.35,5.47q-1.46,1-3.14,2a28.44,28.44,0,0,1-3.53,1.75,24.46,24.46,0,0,1-3.84,1.22A17.85,17.85,0,0,1,552.94,328.74Zm-4.52-16a6.73,6.73,0,0,0,2.67-.63,12,12,0,0,0,2.68-1.61,11.27,11.27,0,0,0,2.09-2.14,3.81,3.81,0,0,0,.85-2.24,5,5,0,0,0-.56-2.51,1.61,1.61,0,0,0-1.38-1,5.32,5.32,0,0,0-2.5.54,5.42,5.42,0,0,0-1.73,1.41,7.31,7.31,0,0,0-1.12,2,13.37,13.37,0,0,0-.65,2.23,16.8,16.8,0,0,0-.29,2.17Q548.42,312,548.42,312.77Z"/></svg>